HIERARCHY
ROOT Hips
{
	OFFSET -0.179506 -22.333345 2.821913
	CHANNELS 6 Xposition Yposition Zposition Zrotation Yrotation Xrotation 
	JOINT LeftUpLeg
	{
		OFFSET 6.951974 -9.140623 -0.681533
		CHANNELS 3 Zrotation Yrotation Xrotation
		JOINT LeftLeg
		{
			OFFSET 3.427654 -37.519855 -0.449580
			CHANNELS 3 Zrotation Yrotation Xrotation
			JOINT LeftFoot
			{
				OFFSET -1.359570 -39.796059 -4.369333
				CHANNELS 3 Zrotation Yrotation Xrotation
				JOINT LeftToe
				{
					OFFSET 2.635814 -5.579078 11.928840
					CHANNELS 3 Zrotation Yrotation Xrotation
					End Site
					{
						OFFSET 0.000000 0.000000 0.000000
					}
				}
			}
		}
	}
	JOINT RightUpLeg
	{
		OFFSET -6.767048 -9.052170 -0.431982
		CHANNELS 3 Zrotation Yrotation Xrotation
		JOINT RightLeg
		{
			OFFSET -3.829005 -38.256897 -0.885003
			CHANNELS 3 Zrotation Yrotation Xrotation
			JOINT RightFoot
			{
				OFFSET 1.577377 -39.841461 -4.231180
				CHANNELS 3 Zrotation Yrotation Xrotation
				JOINT RightToe
				{
					OFFSET -2.537174 -4.814398 12.334795
					CHANNELS 3 Zrotation Yrotation Xrotation
					End Site
					{
						OFFSET 0.000000 0.000000 0.000000
					}
				}
			}
		}
	}
	JOINT Spine
	{
		OFFSET -0.253288 10.896323 -2.669631
		CHANNELS 3 Zrotation Yrotation Xrotation
		JOINT Spine1
		{
			OFFSET 0.548704 13.518043 0.109247
			CHANNELS 3 Zrotation Yrotation Xrotation
			JOINT Spine2
			{
				OFFSET 0.145701 5.292222 2.542457
				CHANNELS 3 Zrotation Yrotation Xrotation
				JOINT Neck
				{
					OFFSET -0.277840 21.387037 -4.285703
					CHANNELS 3 Zrotation Yrotation Xrotation
					JOINT Head
					{
						OFFSET 0.515184 6.496960 5.134897
						CHANNELS 3 Zrotation Yrotation Xrotation
						End Site
						{
							OFFSET 0.000000 0.000000 0.000000
						}
					}
				}
				JOINT LeftShoulder
				{
					OFFSET 7.884473 12.174932 -3.408961
					CHANNELS 3 Zrotation Yrotation Xrotation
					JOINT LeftArm
					{
						OFFSET 9.097692 3.046888 -0.886815
						CHANNELS 3 Zrotation Yrotation Xrotation
						JOINT LeftForeArm
						{
							OFFSET 25.961220 -1.277207 -2.745643
							CHANNELS 3 Zrotation Yrotation Xrotation
							JOINT LeftHand
							{
								OFFSET 24.923361 0.898606 -0.117091
								CHANNELS 3 Zrotation Yrotation Xrotation
								End Site
								{
									OFFSET 0.000000 0.000000 0.000000
								}
							}
						}
					}
				}
				JOINT RightShoulder
				{
					OFFSET -8.175920 11.883285 -3.861528
					CHANNELS 3 Zrotation Yrotation Xrotation
					JOINT RightArm
					{
						OFFSET -9.601238 3.255117 -0.914307
						CHANNELS 3 Zrotation Yrotation Xrotation
						JOINT RightForeArm
						{
							OFFSET -25.374195 -1.332924 -2.140099
							CHANNELS 3 Zrotation Yrotation Xrotation
							JOINT RightHand
							{
								OFFSET -25.529810 0.777228 -0.555919
								CHANNELS 3 Zrotation Yrotation Xrotation
								End Site
								{
									OFFSET 0.000000 0.000000 0.000000
								}
							}
						}
					}
				}
			}
		}
	}
}
MOTION
Frames: 16
Frame Time: 0.033333
-87.742203 24.076048 103.364906 -133.469560 -11.617728 57.426179 46.290495 23.413748 -39.226962 -0.247367 16.350587 25.120295 -14.994208 4.683999 8.273234 nan nan nan -20.097098 -16.752476 16.230604 3.611662 2.418416 28.556985 3.498493 -3.235226 -7.895916 nan nan nan -14.255687 8.746909 19.256290 -3.803891 -10.372344 2.414218 -1.172485 1.797316 1.063472 -9.232579 12.759305 23.465915 15.208607 3.035702 10.470202 -1.281109 -10.891091 -4.053192 -15.335914 -23.793275 -19.982178 13.869119 -32.308046 -25.793363 40.991440 -8.096600 -48.786711 3.652970 3.674258 6.030715 32.229999 0.950683 -0.264264 -38.784045 71.367474 -27.390517 -48.097856 12.577760 -32.192348 
-87.665871 23.834328 103.310219 -132.701589 -11.412662 58.415524 45.160295 21.887338 -37.298197 -0.114930 17.442378 25.692776 -14.886879 4.611207 7.248619 nan nan nan -19.620071 -16.198067 15.325871 3.458040 0.793466 28.226980 3.717928 -2.756190 -7.877010 nan nan nan -13.981458 8.337508 18.487293 -3.471826 -10.436867 3.249031 -1.224028 1.247694 0.422391 -9.057856 12.884496 23.507986 14.510416 2.380283 10.414707 -0.939730 -11.079545 -4.083117 -16.975812 -26.106421 -19.383504 16.518006 -35.024918 -26.277133 38.917954 -9.552671 -49.214136 4.028245 2.836155 5.935463 33.981313 0.775535 0.628358 -44.104951 72.423271 -32.009522 -48.320899 11.939833 -32.408699 
-87.632713 23.537151 103.244370 -132.059307 -11.437291 59.600448 43.872423 20.192428 -35.297902 -0.016305 18.460242 26.252476 -14.866606 4.281992 5.623387 nan nan nan -19.384160 -15.707315 14.152034 3.279017 -1.021384 27.920286 4.009932 -2.432768 -7.824917 nan nan nan -13.697322 8.027262 17.638524 -3.175304 -10.425633 3.886949 -1.285492 0.579146 -0.298820 -8.748539 13.039076 23.828268 13.606095 1.797381 10.244387 -0.837817 -11.255092 -3.735569 -18.535733 -28.332539 -18.648915 19.586943 -37.558130 -26.632192 37.421982 -10.904929 -49.284295 4.671445 2.034579 6.071045 35.235657 0.802092 1.269544 -49.219388 73.332542 -36.043027 -48.155106 11.958442 -33.082012 
-87.644684 23.205946 103.133583 -131.724851 -11.521948 60.837333 42.538045 18.701093 -33.282723 0.127366 19.569782 27.092265 -14.575720 4.048086 4.842192 nan nan nan -19.143914 -15.190649 12.963372 3.180569 -2.490942 27.502085 4.062313 -2.195835 -7.688028 nan nan nan -13.529698 7.593520 16.456027 -2.709523 -10.304127 4.578360 -1.252393 0.160291 -0.651265 -8.643231 13.100805 23.845175 12.575090 1.299843 10.227079 -0.749007 -11.482319 -3.434897 -20.318487 -30.360101 -17.640333 23.055295 -39.873931 -26.508789 36.151285 -12.511518 -47.918345 5.285283 1.572410 6.131131 36.156535 0.847116 1.612048 -54.074431 73.902084 -39.660444 -46.750480 12.903091 -34.046067 
-87.687965 22.853256 103.007149 -131.618291 -11.822944 62.027047 41.055857 17.128441 -30.997672 0.383428 20.973407 27.810282 -14.320833 4.338030 3.833913 nan nan nan -19.004767 -14.541429 11.800806 3.081451 -3.563260 27.044334 4.112708 -1.999340 -7.715921 nan nan nan -13.426112 7.280178 15.207347 -2.244270 -10.128849 5.408607 -1.222769 -0.115083 -0.925998 -8.542709 13.221313 23.581753 11.456744 0.556514 10.276050 -0.474671 -11.758329 -3.334033 -22.106894 -32.179471 -16.448293 26.634412 -42.053354 -27.369384 34.641520 -13.950540 -45.849629 5.912272 1.193361 5.938476 36.974446 0.936665 2.293491 -59.565413 74.507111 -44.330888 -45.572007 13.663778 -33.250752 
-87.712471 22.468651 102.848846 -131.629256 -12.138584 63.240598 39.390846 15.659020 -28.926464 0.574775 21.897812 28.901665 -14.534722 4.285514 3.228562 nan nan nan -18.708906 -13.859271 10.478795 2.748202 -4.782555 26.693130 3.963877 -1.975336 -7.876680 nan nan nan -13.166098 7.002471 14.195858 -1.797311 -9.890847 5.980493 -1.219483 -0.465455 -1.177533 -8.552041 13.293138 23.067918 10.354242 -0.137960 10.365806 -0.017881 -12.043349 -3.070852 -23.869559 -33.829036 -15.191719 30.707031 -44.044823 -29.063001 34.117077 -15.286837 -44.706632 6.487896 0.932037 5.563970 37.937096 0.979946 3.110732 -64.791970 74.722001 -48.893115 -44.715732 14.856081 -33.558434 
-87.734276 22.037682 102.678314 -131.742341 -12.420669 64.486237 37.556240 14.171606 -27.114284 0.645477 21.959116 30.360340 -14.508416 3.700216 3.010408 nan nan nan -18.306847 -13.231391 8.983329 2.214491 -6.142946 26.476419 3.774165 -2.220206 -8.040891 nan nan nan -12.704433 6.753025 13.513564 -1.399053 -9.678664 6.201076 -1.196302 -0.942955 -1.462865 -8.545564 13.552164 22.509545 9.319764 -0.855296 10.477100 0.535185 -12.254497 -2.910785 -25.967958 -35.294306 -13.776661 35.245659 -45.750288 -30.546821 33.538610 -16.644876 -43.489492 7.147748 0.751035 5.268473 38.970807 1.185267 3.944217 -70.432267 74.838975 -53.372086 -44.013652 15.304018 -33.542889 
-87.822670 21.587292 102.500267 -132.221585 -12.772498 65.570783 35.774045 12.580705 -25.019019 0.998138 22.299340 32.010918 -14.878233 3.169856 2.784376 nan nan nan -18.013639 -12.527039 7.535112 1.531531 -7.405193 26.479189 3.766042 -2.305637 -8.372210 nan nan nan -12.299081 6.307751 12.813919 -0.971746 -9.391220 6.752565 -1.106980 -1.092021 -1.849455 -8.515776 13.981246 21.802134 8.118496 -1.481056 10.803979 1.148156 -12.302120 -3.060160 -28.582485 -36.534137 -12.178674 40.306489 -47.182475 -32.215783 31.664136 -18.734777 -41.975887 7.843633 0.833856 5.088796 39.905742 1.530455 4.541159 -75.965365 74.756236 -57.458182 -42.026612 16.151409 -34.328842 
-87.940811 21.117868 102.304298 -132.981073 -13.203907 66.654260 33.844353 10.946756 -22.807971 1.185173 22.232487 33.533864 -15.290456 2.673874 2.840677 nan nan nan -17.771031 -11.770551 5.906626 0.721016 -8.426368 26.752835 3.671929 -2.238357 -8.837329 nan nan nan -11.757379 5.887710 12.178036 -0.631718 -8.950951 7.116467 -1.057701 -1.227315 -2.067792 -8.398838 14.492969 20.950888 6.767998 -2.087070 11.317088 1.681197 -12.086763 -3.347388 -30.972413 -37.819499 -10.866941 44.793365 -48.564722 -33.733205 28.958398 -21.308443 -40.381940 8.460051 0.896127 4.937049 40.589146 2.352431 4.930102 -79.121320 74.791309 -59.337094 -40.646276 17.563749 -35.438694 
-88.044563 20.630266 102.099709 -133.807539 -13.598484 67.760598 31.590031 9.609441 -20.950365 1.239753 21.237020 35.325045 -15.856410 1.945453 4.032268 nan nan nan -17.534114 -11.233238 4.105793 -0.101215 -9.336617 27.231649 3.300212 -2.176224 -9.067475 nan nan nan -11.067328 5.510787 11.829822 -0.297527 -8.506025 6.858825 -1.057984 -1.421225 -1.927483 -8.476293 15.081606 19.993665 5.512403 -2.695477 11.864437 2.003352 -11.736599 -3.825858 -33.087014 -38.966528 -9.600967 48.851451 -50.106652 -34.963160 26.775153 -23.077158 -38.457070 9.013152 0.999112 4.790306 41.444883 3.415539 5.580715 -82.557353 74.828686 -61.964879 -40.977003 17.189998 -35.155776 
-88.202148 20.133350 101.883728 -134.685981 -13.968969 68.749451 29.096109 8.265368 -19.026107 1.194180 20.034744 36.902231 -16.188601 1.325950 5.074437 nan nan nan -17.412022 -10.832588 2.452597 -0.672118 -10.006048 27.714672 2.690706 -2.389836 -9.142906 nan nan nan -10.308156 5.114715 11.499107 -0.012463 -8.039664 6.790109 -1.193162 -1.204064 -1.848621 -8.579845 15.204927 19.043261 4.483152 -3.185172 12.530747 2.322358 -12.085541 -4.054832 -34.919370 -40.014434 -8.434630 53.158210 -51.270750 -36.290774 25.611167 -23.954298 -37.029570 9.741464 1.345983 4.481436 42.204802 3.826183 6.084109 -85.697698 74.681887 -64.260782 -40.883420 17.404644 -35.796181 
-88.434937 19.610086 101.653435 -135.853976 -14.333840 69.727466 26.469123 6.985384 -16.903267 0.856368 18.528426 38.219048 -16.580830 0.425116 6.036302 nan nan nan -17.333210 -10.499284 0.854543 -1.214685 -10.493467 28.086572 2.256346 -2.474155 -9.311147 nan nan nan -9.301738 4.640131 11.232581 0.157704 -7.522335 6.825849 -1.387002 -0.869051 -1.892332 -8.881965 15.332642 18.091812 3.507394 -3.389023 13.127497 2.552988 -12.367465 -4.462307 -36.997729 -40.912808 -7.124285 57.450185 -52.291278 -38.085954 24.803626 -24.291182 -35.940041 10.320617 1.845843 4.193967 42.982548 4.355088 6.472431 -88.093783 74.525208 -65.708060 -39.278216 17.967944 -35.437483 
-88.715134 19.048466 101.400261 -137.173446 -14.701088 70.724474 23.632483 5.604704 -14.764030 0.175697 16.687162 39.358468 -17.016206 -0.774717 6.807708 nan nan nan -17.361996 -10.199445 -0.751305 -1.831118 -11.176155 28.448650 2.277816 -2.093231 -9.621122 nan nan nan -8.239710 4.181387 11.060683 0.250433 -7.047021 6.722619 -1.487253 -0.691452 -1.940773 -9.088778 15.580328 17.249374 2.311247 -3.353733 13.675664 2.865185 -12.221449 -5.011130 -39.645944 -41.823467 -5.491212 61.675923 -52.954250 -40.217327 23.453605 -24.801093 -34.578608 10.669203 2.377780 3.922960 43.760680 5.334968 6.982194 -89.168387 74.472846 -66.119321 -36.543074 18.614532 -35.348026 
-89.031387 18.475407 101.140625 -138.417526 -14.908160 71.648872 20.691770 4.195816 -12.736807 -0.864956 14.491407 40.386958 -17.290662 -2.306244 7.136054 nan nan nan -17.394317 -9.979434 -2.103746 -2.309481 -12.003344 28.582187 2.445834 -1.634542 -9.733642 nan nan nan -6.950314 3.635860 10.958411 0.294305 -6.657154 6.564981 -1.601087 -0.556010 -1.923477 -9.426429 15.719884 16.465847 1.112077 -3.113280 14.184450 3.158299 -12.117800 -5.508480 -42.237214 -42.562231 -3.950763 65.612609 -53.345934 -42.358435 21.829555 -25.606388 -33.290198 10.772076 3.114039 3.700762 44.589596 6.374567 7.521726 -89.413060 74.438117 -65.867472 -33.693236 19.229948 -35.811798 
-89.408607 17.916161 100.886726 -139.673221 -14.982121 72.475045 17.652262 2.766846 -10.587051 -1.911099 12.207031 40.868229 -17.806515 -4.179331 7.919773 nan nan nan -17.377915 -9.701453 -3.114867 -2.668819 -12.734353 28.292615 2.386565 -1.130900 -9.569549 nan nan nan -5.418965 3.025215 10.950417 0.291226 -6.322294 6.420498 -1.744770 -0.284660 -1.946732 -9.957312 15.854512 15.959983 0.106387 -2.810061 14.470274 3.310510 -12.213273 -5.964643 -44.721288 -43.116993 -2.523230 69.194439 -53.612546 -44.731032 20.131206 -26.622260 -32.274923 10.827713 4.035340 3.790530 45.256685 7.413642 7.876503 -89.728140 74.425702 -65.803739 -32.130681 19.234374 -35.595460 
-89.833611 17.351612 100.619812 -141.025414 -15.089023 73.290926 14.479395 1.450124 -8.386204 -3.111518 10.240929 41.212660 -17.349321 -5.738887 6.979906 nan nan nan -17.495064 -9.326499 -4.021333 -2.700182 -13.070581 27.848793 2.195959 -0.671460 -9.578083 nan nan nan -3.883739 2.511541 11.000398 0.254683 -5.960306 6.044916 -1.905170 0.081273 -1.787255 -10.412034 15.933719 15.538312 -0.849436 -2.550388 14.725544 3.325587 -12.574410 -6.320432 -46.993892 -43.623724 -1.148060 72.470363 -53.746689 -47.388248 18.541802 -27.575596 -31.438753 10.854467 4.907235 3.849079 45.869836 8.457089 8.043983 -89.780045 74.494576 -65.728926 -30.830543 19.257944 -35.281288 
